<?xml version="1.0" encoding="UTF-8"?>
<svg width="222.604211px" height="67.7451418px" viewBox="0 0 222.604211 67.7451418" version="1.1" xmlns="http://www.w3.org/2000/svg" xmlns:xlink="http://www.w3.org/1999/xlink">
    <title>Group 2@1x</title>
    <defs>
        <polygon id="path-1" points="0 0 65.2667248 0 65.2667248 65.2667248 0 65.2667248"></polygon>
        <polygon id="path-3" points="0 0 23.5903825 0 23.5903825 40.1036502 0 40.1036502"></polygon>
    </defs>
    <g id="Symbols" stroke="none" stroke-width="1" fill="none" fill-rule="evenodd">
        <g id="Organismos/Cabeceira" transform="translate(-49, -46.2549)">
            <g id="Group-15" transform="translate(49, 46.2549)">
                <circle id="Oval" fill="#F1FFD2" cx="31" cy="36.7451418" r="31"></circle>
                <g id="Group-3" transform="translate(4, 0)">
                    <mask id="mask-2" fill="white">
                        <use xlink:href="#path-1"></use>
                    </mask>
                    <g id="Clip-2"></g>
                    <path d="M32.6331681,3.10857209 C16.35311,3.10857209 3.1085869,16.3534206 3.1085869,32.6334013 C3.1085869,48.9133819 16.35311,62.1582304 32.6331681,62.1582304 C48.9132263,62.1582304 62.1581379,48.9133819 62.1581379,32.6334013 C62.1581379,16.3534206 48.9132263,3.10857209 32.6331681,3.10857209 M32.6331681,65.2668025 C14.6391129,65.2668025 0,50.6273708 0,32.6334013 C0,14.6394317 14.6391129,0 32.6331681,0 C50.6272234,0 65.2667248,14.6394317 65.2667248,32.6334013 C65.2667248,50.6273708 50.6272234,65.2668025 32.6331681,65.2668025" id="Fill-1" fill="#1D1D1B" mask="url(#mask-2)"></path>
                </g>
                <path d="M95.7981852,19.7533013 L95.3121944,19.7533013 L90.0223714,37.9770577 L101.088008,37.9770577 L95.7981852,19.7533013 Z M105.352889,52.6851875 L102.167858,41.9245304 L88.9425217,41.9245304 L85.7578801,52.6851875 L81.0619161,52.6851875 L92.6131541,14.9405756 L98.6050936,14.9405756 L110.156721,52.6851875 L105.352889,52.6851875 Z" id="Fill-4" fill="#1D1D1B"></path>
                <polygon id="Fill-6" fill="#1D1D1B" points="114.088452 52.6851875 114.088452 48.5272618 131.74841 28.8434892 114.671876 28.8434892 114.671876 25.1630746 136.361859 25.1630746 136.361859 29.3210003 118.702666 49.004773 136.892488 49.004773 136.892488 52.6851875"></polygon>
                <polygon id="Fill-8" fill="#1D1D1B" points="151.473656 52.6851875 141.610564 25.1630746 145.92908 25.1630746 149.873778 36.6841381 154.139221 49.1117416 154.351897 49.1117416 158.61734 36.6841381 162.561654 25.1630746 166.773639 25.1630746 156.910548 52.6851875"></polygon>
                <path d="M178.586704,49.8617939 C179.694054,49.8617939 180.704708,49.7269194 181.615574,49.457559 C182.5276,49.1881987 183.322432,48.8298289 184.00239,48.3797289 C184.680415,47.9311837 185.208368,47.392463 185.583545,46.7635668 C185.958721,46.1358367 186.146309,45.4622415 186.146309,44.7431698 L186.146309,40.1632664 L180.249082,40.1632664 C177.675839,40.1632664 175.798798,40.5228023 174.619894,41.2410965 C173.43983,41.9597795 172.849991,43.0014617 172.849991,44.3661431 L172.849991,45.4972233 C172.849991,46.9345893 173.359767,48.0209705 174.378157,48.7571444 C175.396547,49.4940956 176.798623,49.8617939 178.586704,49.8617939 L178.586704,49.8617939 Z M191.347332,52.8251465 C189.666389,52.8251465 188.469306,52.3940922 187.754538,51.5319836 C187.038996,50.669875 186.593039,49.5920449 186.414347,48.2992706 L186.146309,48.2992706 C185.538291,49.9154328 184.565154,51.1817762 183.224577,52.0975237 C181.884386,53.0136599 180.087795,53.4715336 177.836352,53.4715336 C174.940921,53.4715336 172.635329,52.7170914 170.919575,51.2085957 C169.204208,49.7001 168.346331,47.6350039 168.346331,45.0121415 C168.346331,42.4262044 169.284271,40.4330155 171.161312,39.0321862 C173.037579,37.6309682 176.066449,36.9305535 180.249082,36.9305535 L186.146309,36.9305535 L186.146309,34.199636 C186.146309,32.1648576 185.573875,30.6384822 184.430555,29.6208987 C183.286848,28.6040925 181.660054,28.0945233 179.551719,28.0945233 C177.693244,28.0945233 176.173974,28.4633876 174.99507,29.1987842 C173.815006,29.9357354 172.867396,30.9323299 172.152628,32.1893449 L169.258357,30.0340733 C169.614194,29.3161678 170.096895,28.6130323 170.704912,27.9242783 C171.312543,27.2359129 172.063669,26.6276172 172.957516,26.099391 C173.850203,25.5707762 174.869367,25.1513825 176.01346,24.8415987 C177.156394,24.5318148 178.426191,24.3767285 179.819757,24.3767285 C183.072186,24.3767285 185.655099,25.20541 187.56695,26.8612183 C189.478801,28.5170265 190.435306,30.8203879 190.435306,33.7720799 L190.435306,49.1073517 L194.295752,49.1073517 L194.295752,52.8251465 L191.347332,52.8251465 Z" id="Fill-10" fill="#1D1D1B"></path>
                <g id="Group-14" transform="translate(199.0138, 12.5815)">
                    <mask id="mask-4" fill="white">
                        <use xlink:href="#path-3"></use>
                    </mask>
                    <g id="Clip-13"></g>
                    <path d="M12.1168821,6.32655716 C10.8656256,6.32655716 9.99032619,6.0674147 9.49021036,5.54912977 C8.98854738,5.03123162 8.73868286,4.3787341 8.73868286,3.59202399 L8.73868286,2.73453318 C8.73868286,1.94859663 8.98854738,1.29571233 9.49021036,0.777427395 C9.99032619,0.259529245 10.8656256,0 12.1168821,0 C13.3673651,0 14.2434381,0.259529245 14.7443275,0.777427395 C15.2444433,1.29571233 15.4950814,1.94859663 15.4950814,2.73453318 L15.4950814,3.59202399 C15.4950814,4.3787341 15.2444433,5.03123162 14.7443275,5.54912977 C14.2434381,6.0674147 13.3673651,6.32655716 12.1168821,6.32655716 L12.1168821,6.32655716 Z M0,36.4041014 L9.97176041,36.4041014 L9.97176041,16.1380003 L0,16.1380003 L0,12.4384515 L14.2620039,12.4384515 L14.2620039,36.4041014 L23.5905372,36.4041014 L23.5905372,40.1036502 L0,40.1036502 L0,36.4041014 Z" id="Fill-12" fill="#1D1D1B" mask="url(#mask-4)"></path>
                </g>
            </g>
        </g>
    </g>
</svg>